# xmcd
#
# Track frame offsets:
#	150
#	13650
#	32165
#	47217
#	64500
#	78965
#	94190
#	116167
#	131050
#	148037
#	168410
#	185645
#	205930
#	219472
#	237185
#
# Disc length: 3330
#
# Revision: 3
# Processed by: cddbd v1.5.1PL0 Copyright (c) Steve Scherf et al.
# Submitted via: EasyCD 2.21 - (C) 1996 Greg Leichner
# Normalized: r1:TDELIM( - );r2:TSWAP
#
DISCID=d80d000f
DTITLE=Various Artist - We the People - Vol. 2
DYEAR=1900
DGENRE=
TTITLE0=Trace Adkins - Every Light in the House
TTITLE1=Trace Adkins - (This Ain't) No Thinkin' Thing
TTITLE2=Suzy Bogguss - No Way Out
TTITLE3=Suzy Bogguss - Live to Love Another Day
TTITLE4=John Berry - Faithfully
TTITLE5=John Berry - Change My Mind
TTITLE6=Deana Carter - Strawberry Wine
TTITLE7=Deana Carter - Did I Shave My Legs for This?
TTITLE8=Billy Dean - That Girl's Been Spyin' On Me
TTITLE9=Billy Dean - I Wouldn't Be a Man
TTITLE10=Tanya Tucker - Love Thing
TTITLE11=Tanya Tucker - Wishin' It All Away
TTITLE12=George Ducas - Long Trail of Tears
TTITLE13=George Ducas - You're Only My Everything
TTITLE14=Roy D. Mercer - Dead Hamster Ass Whup
EXTD=
EXTT0=
EXTT1=
EXTT2=
EXTT3=
EXTT4=
EXTT5=
EXTT6=
EXTT7=
EXTT8=
EXTT9=
EXTT10=
EXTT11=
EXTT12=
EXTT13=
EXTT14=
PLAYORDER=
